<svg data-v-fde0c5aa="" xmlns="http://www.w3.org/2000/svg" viewBox="0 0 300 300" class="iconLeft"><!----><defs data-v-fde0c5aa=""><!----></defs><rect data-v-fde0c5aa="" fill="#F6F5F0" x="0" y="0" width="300px" height="300px" class="logo-background-square"></rect><defs data-v-fde0c5aa=""><!----></defs><g data-v-fde0c5aa="" id="83c5ad68-1b1d-4257-9afd-888c36534a2d" fill="#DADC2C" transform="matrix(3.4494078159332275,0,0,3.4494078159332275,115.91823443879174,117.19613085517139)"><path d="M0.22 3.66L2.84 3.66L2.84 4.31L1.97 4.31L1.97 15.47L1.09 15.47L1.09 4.31L0.22 4.31L0.22 3.66ZM6.13 5.95L6.13 14.49L6.13 14.49Q6.13 14.77 6.02 14.98L6.02 14.98L6.02 14.98Q5.91 15.19 5.74 15.33L5.74 15.33L5.74 15.33Q5.56 15.46 5.33 15.53L5.33 15.53L5.33 15.53Q5.11 15.59 4.87 15.59L4.87 15.59L4.87 15.59Q4.61 15.59 4.37 15.52L4.37 15.52L4.37 15.52Q4.12 15.45 3.93 15.31L3.93 15.31L3.93 15.31Q3.74 15.17 3.62 14.96L3.62 14.96L3.62 14.96Q3.50 14.75 3.50 14.49L3.50 14.49L3.50 5.95L3.50 5.95Q3.50 5.69 3.62 5.49L3.62 5.49L3.62 5.49Q3.74 5.29 3.93 5.15L3.93 5.15L3.93 5.15Q4.13 5.02 4.38 4.95L4.38 4.95L4.38 4.95Q4.62 4.87 4.87 4.87L4.87 4.87L4.87 4.87Q5.11 4.87 5.34 4.94L5.34 4.94L5.34 4.94Q5.56 5.00 5.74 5.14L5.74 5.14L5.74 5.14Q5.91 5.27 6.02 5.48L6.02 5.48L6.02 5.48Q6.13 5.68 6.13 5.95L6.13 5.95ZM5.25 14.49L5.25 5.95L5.25 5.95Q5.25 5.72 5.14 5.62L5.14 5.62L5.14 5.62Q5.02 5.52 4.87 5.52L4.87 5.52L4.87 5.52Q4.79 5.52 4.70 5.55L4.70 5.55L4.70 5.55Q4.61 5.58 4.54 5.64L4.54 5.64L4.54 5.64Q4.46 5.70 4.42 5.78L4.42 5.78L4.42 5.78Q4.38 5.86 4.38 5.95L4.38 5.95L4.38 14.49L4.38 14.49Q4.38 14.58 4.42 14.66L4.42 14.66L4.42 14.66Q4.46 14.75 4.54 14.80L4.54 14.80L4.54 14.80Q4.61 14.85 4.69 14.89L4.69 14.89L4.69 14.89Q4.78 14.92 4.87 14.92L4.87 14.92L4.87 14.92Q5.02 14.92 5.13 14.82L5.13 14.82L5.13 14.82Q5.25 14.72 5.25 14.49L5.25 14.49ZM9.63 4.97L9.63 15.47L8.97 15.47L7.77 9.34L7.77 15.47L7 15.47L7 4.97L7.66 4.97L8.87 11.31L8.87 4.97L9.63 4.97ZM11.59 10.44L11.81 7.59L12.03 4.97L12.91 4.97L12.03 11.97L12.03 15.47L11.16 15.47L11.16 11.97L10.28 4.97L11.16 4.97L11.38 7.59L11.59 10.44ZM13.51 3.43L14.60 3.43L14.31 5.89L13.73 5.89L13.51 3.43ZM17.83 5.95L17.83 8.69L16.96 8.69L16.96 5.95L16.96 5.95Q16.96 5.71 16.86 5.61L16.86 5.61L16.86 5.61Q16.75 5.52 16.63 5.52L16.63 5.52L16.63 5.52Q16.51 5.52 16.41 5.61L16.41 5.61L16.41 5.61Q16.30 5.71 16.30 5.95L16.30 5.95L16.30 5.95Q16.30 6.69 16.37 7.30L16.37 7.30L16.37 7.30Q16.44 7.92 16.55 8.44L16.55 8.44L16.55 8.44Q16.66 8.96 16.80 9.38L16.80 9.38L16.80 9.38Q16.93 9.81 17.07 10.17L17.07 10.17L17.07 10.17Q17.18 10.45 17.31 10.81L17.31 10.81L17.31 10.81Q17.45 11.18 17.56 11.70L17.56 11.70L17.56 11.70Q17.68 12.21 17.76 12.89L17.76 12.89L17.76 12.89Q17.83 13.58 17.83 14.49L17.83 14.49L17.83 14.49Q17.83 14.77 17.73 14.98L17.73 14.98L17.73 14.98Q17.63 15.19 17.46 15.32L17.46 15.32L17.46 15.32Q17.29 15.46 17.07 15.52L17.07 15.52L17.07 15.52Q16.86 15.58 16.63 15.58L16.63 15.58L16.63 15.58Q16.41 15.58 16.19 15.52L16.19 15.52L16.19 15.52Q15.98 15.46 15.80 15.32L15.80 15.32L15.80 15.32Q15.63 15.19 15.53 14.98L15.53 14.98L15.53 14.98Q15.43 14.77 15.43 14.49L15.43 14.49L15.43 11.75L16.30 11.75L16.30 14.49L16.30 14.49Q16.30 14.73 16.41 14.83L16.41 14.83L16.41 14.83Q16.51 14.92 16.63 14.92L16.63 14.92L16.63 14.92Q16.75 14.92 16.86 14.83L16.86 14.83L16.86 14.83Q16.96 14.73 16.96 14.49L16.96 14.49L16.96 14.49Q16.96 13.60 16.87 12.94L16.87 12.94L16.87 12.94Q16.79 12.27 16.66 11.76L16.66 11.76L16.66 11.76Q16.53 11.25 16.38 10.87L16.38 10.87L16.38 10.87Q16.22 10.49 16.09 10.17L16.09 10.17L16.09 10.17Q15.96 9.85 15.84 9.45L15.84 9.45L15.84 9.45Q15.72 9.04 15.63 8.53L15.63 8.53L15.63 8.53Q15.54 8.02 15.48 7.38L15.48 7.38L15.48 7.38Q15.43 6.74 15.43 5.95L15.43 5.95L15.43 5.95Q15.43 5.67 15.53 5.46L15.53 5.46L15.53 5.46Q15.63 5.26 15.80 5.12L15.80 5.12L15.80 5.12Q15.98 4.99 16.19 4.93L16.19 4.93L16.19 4.93Q16.41 4.86 16.63 4.86L16.63 4.86L16.63 4.86Q16.86 4.86 17.07 4.93L17.07 4.93L17.07 4.93Q17.29 4.99 17.46 5.12L17.46 5.12L17.46 5.12Q17.63 5.26 17.73 5.46L17.73 5.46L17.73 5.46Q17.83 5.67 17.83 5.95L17.83 5.95ZM22.96 10.00L22.96 14.38L22.96 14.38Q22.96 14.79 22.80 15.01L22.80 15.01L22.80 15.01Q22.65 15.23 22.41 15.33L22.41 15.33L22.41 15.33Q22.16 15.44 21.85 15.45L21.85 15.45L21.85 15.45Q21.53 15.47 21.21 15.47L21.21 15.47L20.33 15.47L20.33 3.66L21.21 3.66L21.21 3.66Q21.62 3.66 21.94 3.67L21.94 3.67L21.94 3.67Q22.26 3.69 22.49 3.79L22.49 3.79L22.49 3.79Q22.72 3.90 22.84 4.12L22.84 4.12L22.84 4.12Q22.96 4.34 22.96 4.75L22.96 4.75L22.96 8.47L22.96 8.47Q22.96 8.80 22.79 8.98L22.79 8.98L22.79 8.98Q22.63 9.15 22.30 9.24L22.30 9.24L22.30 9.24Q22.63 9.32 22.79 9.50L22.79 9.50L22.79 9.50Q22.96 9.67 22.96 10.00L22.96 10.00ZM21.21 4.31L21.21 8.91L21.86 8.91L21.86 8.91Q21.94 8.91 21.99 8.87L21.99 8.87L21.99 8.87Q22.03 8.83 22.05 8.77L22.05 8.77L22.05 8.77Q22.07 8.71 22.08 8.63L22.08 8.63L22.08 8.63Q22.08 8.55 22.08 8.47L22.08 8.47L22.08 4.75L22.08 4.75Q22.08 4.59 22.04 4.50L22.04 4.50L22.04 4.50Q21.99 4.41 21.89 4.37L21.89 4.37L21.89 4.37Q21.79 4.33 21.62 4.32L21.62 4.32L21.62 4.32Q21.45 4.31 21.21 4.31L21.21 4.31ZM22.08 14.38L22.08 10.00L22.08 10.00Q22.08 9.92 22.08 9.84L22.08 9.84L22.08 9.84Q22.07 9.76 22.05 9.70L22.05 9.70L22.05 9.70Q22.03 9.64 21.99 9.60L21.99 9.60L21.99 9.60Q21.94 9.56 21.86 9.56L21.86 9.56L21.21 9.56L21.21 14.81L21.21 14.81Q21.45 14.81 21.62 14.81L21.62 14.81L21.62 14.81Q21.79 14.80 21.89 14.76L21.89 14.76L21.89 14.76Q21.99 14.72 22.04 14.63L22.04 14.63L22.04 14.63Q22.08 14.54 22.08 14.38L22.08 14.38ZM25.36 14.49L25.36 4.97L26.24 4.97L26.24 14.49L26.24 14.49Q26.24 14.77 26.13 14.98L26.13 14.98L26.13 14.98Q26.03 15.19 25.86 15.32L25.86 15.32L25.86 15.32Q25.69 15.46 25.47 15.52L25.47 15.52L25.47 15.52Q25.26 15.58 25.03 15.58L25.03 15.58L25.03 15.58Q24.81 15.58 24.59 15.52L24.59 15.52L24.59 15.52Q24.38 15.46 24.21 15.32L24.21 15.32L24.21 15.32Q24.04 15.19 23.93 14.98L23.93 14.98L23.93 14.98Q23.83 14.77 23.83 14.49L23.83 14.49L23.83 4.97L24.71 4.97L24.71 14.49L24.71 14.49Q24.71 14.73 24.81 14.83L24.81 14.83L24.81 14.83Q24.91 14.92 25.03 14.92L25.03 14.92L25.03 14.92Q25.16 14.92 25.26 14.83L25.26 14.83L25.26 14.83Q25.36 14.73 25.36 14.49L25.36 14.49ZM29.52 5.84L29.52 9.34L29.52 9.34Q29.52 9.67 29.35 9.85L29.35 9.85L29.35 9.85Q29.19 10.03 28.86 10.10L28.86 10.10L28.86 10.10Q29.19 10.19 29.35 10.37L29.35 10.37L29.35 10.37Q29.52 10.55 29.52 10.88L29.52 10.88L29.52 15.47L28.64 15.47L28.64 10.88L28.64 10.88Q28.64 10.71 28.60 10.62L28.60 10.62L28.60 10.62Q28.56 10.53 28.48 10.49L28.48 10.49L28.48 10.49Q28.40 10.45 28.27 10.45L28.27 10.45L28.27 10.45Q28.15 10.44 27.99 10.44L27.99 10.44L27.99 15.47L27.11 15.47L27.11 4.97L28.10 4.97L28.10 4.97Q28.54 4.97 28.86 5.04L28.86 5.04L28.86 5.04Q29.18 5.11 29.35 5.29L29.35 5.29L29.35 5.29Q29.52 5.48 29.52 5.84L29.52 5.84ZM28.64 9.34L28.64 6.06L28.64 6.06Q28.64 5.90 28.60 5.81L28.60 5.81L28.60 5.81Q28.56 5.72 28.48 5.68L28.48 5.68L28.48 5.68Q28.40 5.64 28.27 5.63L28.27 5.63L28.27 5.63Q28.15 5.63 27.99 5.63L27.99 5.63L27.99 9.78L27.99 9.78Q28.15 9.78 28.27 9.78L28.27 9.78L28.27 9.78Q28.40 9.77 28.48 9.73L28.48 9.73L28.48 9.73Q28.56 9.69 28.60 9.60L28.60 9.60L28.60 9.60Q28.64 9.51 28.64 9.34L28.64 9.34ZM31.27 5.84L31.27 14.49L31.27 14.49Q31.27 14.73 31.37 14.83L31.37 14.83L31.37 14.83Q31.47 14.92 31.60 14.92L31.60 14.92L31.60 14.92Q31.72 14.92 31.82 14.83L31.82 14.83L31.82 14.83Q31.92 14.73 31.92 14.49L31.92 14.49L31.92 10.88L31.71 10.88L31.71 10.22L32.80 10.22L32.80 14.49L32.80 14.49Q32.80 14.77 32.70 14.98L32.70 14.98L32.70 14.98Q32.59 15.19 32.42 15.32L32.42 15.32L32.42 15.32Q32.25 15.46 32.04 15.52L32.04 15.52L32.04 15.52Q31.82 15.58 31.60 15.58L31.60 15.58L31.60 15.58Q31.37 15.58 31.15 15.52L31.15 15.52L31.15 15.52Q30.94 15.46 30.77 15.32L30.77 15.32L30.77 15.32Q30.60 15.19 30.50 14.98L30.50 14.98L30.50 14.98Q30.39 14.77 30.39 14.49L30.39 14.49L30.39 5.84L30.39 5.84Q30.39 5.56 30.50 5.35L30.50 5.35L30.50 5.35Q30.60 5.14 30.77 5.01L30.77 5.01L30.77 5.01Q30.94 4.87 31.15 4.81L31.15 4.81L31.15 4.81Q31.37 4.75 31.60 4.75L31.60 4.75L31.60 4.75Q31.82 4.75 32.04 4.81L32.04 4.81L32.04 4.81Q32.25 4.87 32.42 5.01L32.42 5.01L32.42 5.01Q32.59 5.14 32.70 5.35L32.70 5.35L32.70 5.35Q32.80 5.55 32.80 5.84L32.80 5.84L32.80 9.34L31.92 9.34L31.92 5.84L31.92 5.84Q31.92 5.59 31.82 5.50L31.82 5.50L31.82 5.50Q31.72 5.41 31.60 5.41L31.60 5.41L31.60 5.41Q31.47 5.41 31.37 5.50L31.37 5.50L31.37 5.50Q31.27 5.59 31.27 5.84L31.27 5.84ZM35.42 4.97L35.42 5.63L34.55 5.63L34.55 9.56L35.42 9.56L35.42 10.22L34.55 10.22L34.55 14.81L35.42 14.81L35.42 15.47L33.67 15.47L33.67 4.97L35.42 4.97ZM38.49 5.84L38.49 9.34L38.49 9.34Q38.49 9.67 38.32 9.85L38.32 9.85L38.32 9.85Q38.16 10.03 37.83 10.10L37.83 10.10L37.83 10.10Q38.16 10.19 38.32 10.37L38.32 10.37L38.32 10.37Q38.49 10.55 38.49 10.88L38.49 10.88L38.49 15.47L37.61 15.47L37.61 10.88L37.61 10.88Q37.61 10.71 37.57 10.62L37.57 10.62L37.57 10.62Q37.53 10.53 37.45 10.49L37.45 10.49L37.45 10.49Q37.37 10.45 37.24 10.45L37.24 10.45L37.24 10.45Q37.12 10.44 36.96 10.44L36.96 10.44L36.96 15.47L36.08 15.47L36.08 4.97L37.06 4.97L37.06 4.97Q37.51 4.97 37.83 5.04L37.83 5.04L37.83 5.04Q38.14 5.11 38.32 5.29L38.32 5.29L38.32 5.29Q38.49 5.48 38.49 5.84L38.49 5.84ZM37.61 9.34L37.61 6.06L37.61 6.06Q37.61 5.90 37.57 5.81L37.57 5.81L37.57 5.81Q37.53 5.72 37.45 5.68L37.45 5.68L37.45 5.68Q37.37 5.64 37.24 5.63L37.24 5.63L37.24 5.63Q37.12 5.63 36.96 5.63L36.96 5.63L36.96 9.78L36.96 9.78Q37.12 9.78 37.24 9.78L37.24 9.78L37.24 9.78Q37.37 9.77 37.45 9.73L37.45 9.73L37.45 9.73Q37.53 9.69 37.57 9.60L37.57 9.60L37.57 9.60Q37.61 9.51 37.61 9.34L37.61 9.34ZM41.77 5.95L41.77 8.69L40.89 8.69L40.89 5.95L40.89 5.95Q40.89 5.71 40.79 5.61L40.79 5.61L40.79 5.61Q40.69 5.52 40.56 5.52L40.56 5.52L40.56 5.52Q40.44 5.52 40.34 5.61L40.34 5.61L40.34 5.61Q40.24 5.71 40.24 5.95L40.24 5.95L40.24 5.95Q40.24 6.69 40.30 7.30L40.30 7.30L40.30 7.30Q40.37 7.92 40.48 8.44L40.48 8.44L40.48 8.44Q40.59 8.96 40.73 9.38L40.73 9.38L40.73 9.38Q40.87 9.81 41.00 10.17L41.00 10.17L41.00 10.17Q41.11 10.45 41.24 10.81L41.24 10.81L41.24 10.81Q41.38 11.18 41.49 11.70L41.49 11.70L41.49 11.70Q41.61 12.21 41.69 12.89L41.69 12.89L41.69 12.89Q41.77 13.58 41.77 14.49L41.77 14.49L41.77 14.49Q41.77 14.77 41.67 14.98L41.67 14.98L41.67 14.98Q41.56 15.19 41.39 15.32L41.39 15.32L41.39 15.32Q41.22 15.46 41.01 15.52L41.01 15.52L41.01 15.52Q40.79 15.58 40.56 15.58L40.56 15.58L40.56 15.58Q40.34 15.58 40.12 15.52L40.12 15.52L40.12 15.52Q39.91 15.46 39.74 15.32L39.74 15.32L39.74 15.32Q39.57 15.19 39.46 14.98L39.46 14.98L39.46 14.98Q39.36 14.77 39.36 14.49L39.36 14.49L39.36 11.75L40.24 11.75L40.24 14.49L40.24 14.49Q40.24 14.73 40.34 14.83L40.34 14.83L40.34 14.83Q40.44 14.92 40.56 14.92L40.56 14.92L40.56 14.92Q40.69 14.92 40.79 14.83L40.79 14.83L40.79 14.83Q40.89 14.73 40.89 14.49L40.89 14.49L40.89 14.49Q40.89 13.60 40.81 12.94L40.81 12.94L40.81 12.94Q40.72 12.27 40.59 11.76L40.59 11.76L40.59 11.76Q40.46 11.25 40.31 10.87L40.31 10.87L40.31 10.87Q40.15 10.49 40.02 10.17L40.02 10.17L40.02 10.17Q39.89 9.85 39.77 9.45L39.77 9.45L39.77 9.45Q39.66 9.04 39.56 8.53L39.56 8.53L39.56 8.53Q39.47 8.02 39.42 7.38L39.42 7.38L39.42 7.38Q39.36 6.74 39.36 5.95L39.36 5.95L39.36 5.95Q39.36 5.67 39.46 5.46L39.46 5.46L39.46 5.46Q39.57 5.26 39.74 5.12L39.74 5.12L39.74 5.12Q39.91 4.99 40.12 4.93L40.12 4.93L40.12 4.93Q40.34 4.86 40.56 4.86L40.56 4.86L40.56 4.86Q40.79 4.86 41.01 4.93L41.01 4.93L41.01 4.93Q41.22 4.99 41.39 5.12L41.39 5.12L41.39 5.12Q41.56 5.26 41.67 5.46L41.67 5.46L41.67 5.46Q41.77 5.67 41.77 5.95L41.77 5.95Z"></path></g><defs data-v-fde0c5aa=""><!----></defs><g data-v-fde0c5aa="" id="db846e8c-ed78-41e5-b223-2bf9d7eab7df" stroke="none" fill="#B85E2B" transform="matrix(0.7922671437263489,0,0,0.7922671437263489,33.91549854465139,111.58063180118643)"><path d="M30.1 27c.2.6.8.9 1.4.9.2 0 .4 0 .6-.1.8-.3 1.1-1.2.8-2L25.7 9.7c-.3-.8-1.2-1.1-2-.8-.8.3-1.1 1.2-.8 2L30.1 27zM18.5 32.5c.4 0 .9-.2 1.2-.6.5-.6.4-1.6-.2-2.1l-9.4-7.5c-.6-.4-1.6-.3-2.1.3s-.4 1.6.2 2.1l9.4 7.5c.3.2.6.3.9.3zM66.2 27.6c.2.1.4.1.6.1.6 0 1.1-.3 1.4-.9l5.6-12.2c.3-.8 0-1.6-.7-2-.8-.3-1.6 0-2 .7l-5.6 12.2c-.4.8-.1 1.7.7 2.1zM87.5 21.2c-.6-.5-1.6-.5-2.1.2L77.9 30c-.5.6-.5 1.6.2 2.1.3.2.6.4 1 .4s.8-.2 1.1-.5l7.5-8.7c.5-.6.5-1.6-.2-2.1zM48.9 25.8c.1 0 .1 0 0 0 .9 0 1.5-.6 1.5-1.4l.4-10.4c0-.8-.6-1.5-1.4-1.5-.8 0-1.5.6-1.5 1.4l-.3 10.3c-.1.9.5 1.6 1.3 1.6zM86.7 60.4c-.1-.4-.3-.7-.6-.9-.6-1-1.8-2.4-3.8-3.7.3-.4.6-.7.7-1.1v-.1c.1-.3 2-8.4-3.9-14.4-4.3-4.3-17.4-7.6-30-7.6-6.8 0-16.5 1-24.1 5.6-.9.5-10.3 6.1-8.9 18.1.1.5.2.9.5 1.3-2.9 2.1-5.8 4.7-5.5 6.7.1.4.4 1.5 1.8 2 .6.2 1.2.3 1.9.3 1.5 0 2.7-.5 3.6-.9v.2c.1.6.1 1.3.3 2.1-.1.1-.1.3-.2.4-1.3.6-2.9 1.7-3 3.3 0 .1 0 .3-.1.4-.9 6.3 1.2 10.5 6.3 12.3 4.7 1.7 13.1 3.8 25.1 3.8 6 0 12.9-.5 20.7-1.9 15.2-2.7 16.4-5.4 15.9-13.1 0-.5-.1-1-.1-1.6 0-1-.5-1.8-1.2-2.3-.5-.4-1.1-.6-1.7-.7 1.1-.1 2.3-.3 3.4-.6.5-.1.9-.5 1.1-1l1.8-5.5c.1-.3.1-.6 0-1 .1 0 0-.1 0-.1zM22.8 81.6c-4.7-1.7-4.9-5.5-4.4-9 0-.2.1-.4.1-.5 0-.1.2-.2.3-.4.4.3 1.4.7 2.7 1.2.2.1.4.1.6.2 3.1 1 7.9 2.2 13.8 3 .9 1.4 2 2.5 3.4 2.5.5 0 .9-.1 1.4-.3.7-.3 1.2-.9 1.5-1.5 10.9.8 24.2-.1 37.2-5.4.5.1.8.2.9.3 0 .6.1 1.1.1 1.6.4 5.9.5 7.5-13.4 10-22.7 4.1-37.4.7-44.2-1.7zm3.8-40.9c7-4.3 16.1-5.2 22.5-5.2 12.7 0 24.6 3.5 27.9 6.7 4.5 4.5 3.3 10.7 3.2 11.4-.1.2-.3.4-.6.6-.4.3-1.1.6-1.9.9-.6.2-1.3.5-2.1.7-1.2.3-2.5.7-4 1-.8.2-1.7.3-2.6.5l-1.8.3c-.8.1-1.6.2-2.4.4-.7.1-1.4.2-2.2.3-.7.1-1.3.2-2 .2-.7.1-1.4.2-2.2.2-1 .1-1.9.2-3 .3-4.3.3-9 .5-13.9.5-10 0-15.8-.9-19-1.8-.9-.3-1.7-.6-2.2-.8-.8-.4-1.2-.8-1.2-1.1-1.2-10.4 7-14.9 7.5-15.1-.1 0 0 0 0 0zm7.2 28.5H33l-1.5-.8c1.1-.7 1.8-1 2.1-1.2v.5c.1.3.1.9.2 1.5zM69.9 68c-.5.7-1 1.1-2 1-1.5-.2-1.5 0-2.2-.7-.4-.4-1.1-1.1-1.9-1.4 0-.1.1-.3.1-.4 1.8.5 3.8 1.1 6 1.5zm-17.7 1.8l.3-.9c.1-.7 1.6-.8 1.9-.8 1.4 0 3 .5 4.1 1.3.1.1.2.1.3.2-.1.1-.2.2-.3.2-.5.4-1 .7-1.5 1.1-1.5.9-3.6 1.5-3.6 1.5s-3 1-4.5-.5c1.5 0 2.7-.8 3.3-2.1zm28.5-10.1c-2.8.2-5.3.1-7.4-.2 1-.2 1.9-.5 2.8-.7 1.3-.4 2.5-.8 3.4-1.3 1.2.6 2.2 1.3 2.8 2-.5.1-1 .2-1.6.2zM19 59.6c1.4.8 3.4 1.4 5.9 1.9l-1.8 3c-.4.7-.2 1.6.5 2.1.2.1.5.2.8.2.5 0 1-.3 1.3-.7l2.4-4c3.4.4 7.6.6 12.4.7l.4 2.3c.1.7.8 1.2 1.5 1.2h.3c.8-.2 1.3-.9 1.2-1.8l-.3-1.8c3.6-.1 8-.2 12.5-.6.8-.1 1.5-.1 2.3-.2.4 0 .7-.1 1.1-.1.5.6.9 1.3 1.2 1.9.3.6.4 1.3.4 1.8v.6c-.1.8-.5 1.2-.5 1.2s-.1 0-.1-.1c-1.6-1.2-3.8-1.9-5.9-1.9-2.6 0-4.4 1.2-4.8 3.2 0 .2-.1.6-.9.6s-2.2-.5-3.3-1.6c-.5-.5-1.1-.8-1.7-.8-1.2 0-1.8.8-2.2 2-.1.3-.2.6-.3 1l-.3 1.5c-.2 1.5-.7 4.1-1.5 4.6-.8-.3-2.1-3.5-2.5-6.2 0-.1 0-.3-.1-.4-.1-.5-.1-.9-.1-1.4 0-3.2-1.9-3.6-2.7-3.6-1 0-2.5.4-6 3.1-.6.4-1.2.9-1.9 1.5-.2.2-.5.4-.7.5-1.2.9-1.9 1-2.2 1-.4 0-.7-.4-1-1l-.3-.9-.3-1.5c-.1-.5-.1-.9-.1-1.2 0-.5-.1-.9-.1-1.2-.2-1.5-1.3-2-2.1-2-.6 0-1.2.2-1.9.5-.9.3-1.9.8-2.9.6.4-1 2.3-2.6 4.3-4zm63.4 5.7c-.9.2-1.8.3-2.6.4-2.4.2-4.8.1-7-.2-3.5-.5-6.6-1.4-9.1-2.3-.2-.6-.4-1.2-.8-1.8 1.3-.2 2.6-.3 3.9-.5C69.4 62 73 63 77.8 63c1.7 0 3.6-.1 5.6-.4l-1 2.7z"></path></g><!----></svg>